<svg width="58" height="25" viewBox="0 0 58 25" fill="none" xmlns="http://www.w3.org/2000/svg">
<path d="M33.1406 22.2344C31.4297 22.2344 30.1133 21.8633 29.1914 21.1211C28.2773 20.3789 27.668 19.1797 27.3633 17.5234L30.7969 17.0195C30.9375 17.8711 31.1992 18.5039 31.582 18.918C31.9648 19.3242 32.4922 19.5273 33.1641 19.5273C33.8516 19.5273 34.3711 19.2969 34.7227 18.8359C35.082 18.375 35.2617 17.7148 35.2617 16.8555V8.19531H31.9688V5.48828H38.707V16.7734C38.707 18.4922 38.2188 19.832 37.2422 20.793C36.2656 21.7539 34.8984 22.2344 33.1406 22.2344ZM55.5469 10.7148C55.5469 11.7852 55.3008 12.7344 54.8086 13.5625C54.3242 14.3828 53.6328 15.0273 52.7344 15.4961C51.8359 15.957 50.7656 16.1875 49.5234 16.1875H45.4219V22H41.9648V5.48828H49.3828C51.3594 5.48828 52.8789 5.94531 53.9414 6.85938C55.0117 7.76562 55.5469 9.05078 55.5469 10.7148ZM52.0664 10.7734C52.0664 9.03906 51.043 8.17188 48.9961 8.17188H45.4219V13.5273H49.0898C50.043 13.5273 50.7773 13.293 51.293 12.8242C51.8086 12.3477 52.0664 11.6641 52.0664 10.7734Z" fill="#262626"/>
<path d="M0 3C0 1.34315 1.34315 0 3 0H22C23.6569 0 25 1.34315 25 3V22C25 23.6569 23.6569 25 22 25H3C1.34315 25 0 23.6569 0 22V3Z" fill="#262626"/>
<path d="M17 8L21 13L17 18" stroke="#F7F6F4" stroke-width="2"/>
<path d="M9 8L5 13L9 18" stroke="#F7F6F4" stroke-width="2"/>
<path d="M15.2798 7.34091L11.9986 19.5312H10.174L13.4553 7.34091H15.2798Z" fill="#F7F6F4"/>
</svg>
