<svg width="41" height="41" viewBox="0 0 41 41" fill="none" xmlns="http://www.w3.org/2000/svg">
<rect width="41" height="41" fill="white"/>
<path d="M9.296 28.288C8.016 28.288 6.912 28.072 5.984 27.64C5.056 27.208 4.336 26.584 3.824 25.768L6.392 23.32C6.728 23.88 7.144 24.32 7.64 24.64C8.136 24.944 8.704 25.096 9.344 25.096C10.08 25.096 10.68 24.888 11.144 24.472C11.624 24.056 11.952 23.392 12.128 22.48L13.736 14.32H7.832L8.48 11.2H18.224L15.992 22.288C15.704 23.76 15.264 24.936 14.672 25.816C14.096 26.68 13.36 27.312 12.464 27.712C11.568 28.096 10.512 28.288 9.296 28.288ZM18.6804 28L22.0404 11.2H28.8324C30.9284 11.2 32.5444 11.664 33.6804 12.592C34.8324 13.504 35.4084 14.784 35.4084 16.432C35.4084 17.84 35.0804 19.072 34.4244 20.128C33.7684 21.168 32.8244 21.968 31.5924 22.528C30.3764 23.088 28.9284 23.368 27.2484 23.368H21.8004L23.8644 21.592L22.5924 28H18.6804ZM23.7684 22.048L22.4004 20.2H27.4164C28.6964 20.2 29.6884 19.912 30.3924 19.336C31.1124 18.744 31.4724 17.888 31.4724 16.768C31.4724 15.952 31.2004 15.352 30.6564 14.968C30.1124 14.568 29.3444 14.368 28.3524 14.368H23.6244L25.6884 12.472L23.7684 22.048Z" fill="#262626"/>
</svg>
